<svg viewBox="0 0 408 202" version="1.1" xmlns="http://www.w3.org/2000/svg">
    <g stroke="none" stroke-width="1" fill="none" fill-rule="evenodd">
        <path d="M305.8853,91.0888 C304.2283,91.0888 302.8853,89.7458 302.8853,88.0888 L302.8853,25.0888 C302.8853,23.4318 304.2283,22.0888 305.8853,22.0888 L311.3293,22.0888 C311.0053,17.1978 309.4953,13.4028 306.8273,10.7828 C302.3213,6.3588 294.8433,6.5728 294.7813,6.5858 C294.7393,6.5868 64.7513,6.5888 64.7513,6.5888 C51.1733,8.2588 48.6453,17.2348 48.2663,21.9228 L52.9413,21.9228 C54.5973,21.9228 55.9413,23.2658 55.9413,24.9228 L55.9413,66.6688 C55.9413,68.3258 54.5973,69.6688 52.9413,69.6688 C51.2843,69.6688 49.9413,68.3258 49.9413,66.6688 L49.9413,27.9228 L45.2743,27.9228 C43.7373,27.9228 42.4483,26.7608 42.2903,25.2328 C42.2683,25.0148 40.3093,3.4228 64.2213,0.6098 C64.3373,0.5958 64.4543,0.5888 64.5723,0.5888 L295.5193,0.5888 C296.5583,0.5528 304.8333,0.4708 310.9693,6.4418 C315.4233,10.7758 317.5813,17.0728 317.3843,25.1618 C317.3443,26.7898 316.0133,28.0888 314.3853,28.0888 L308.8853,28.0888 L308.8853,88.0888 C308.8853,89.7458 307.5423,91.0888 305.8853,91.0888" id="Fill-1" fill="#ffffff"></path>
        <path d="M283.4136,115.704 C270.0216,115.704 259.1266,126.6 259.1266,139.991 C259.1266,153.383 270.0216,164.278 283.4136,164.278 C296.8056,164.278 307.7006,153.383 307.7006,139.991 C307.7006,126.6 296.8056,115.704 283.4136,115.704 M283.4136,170.278 C266.7136,170.278 253.1266,156.691 253.1266,139.991 C253.1266,123.291 266.7136,109.704 283.4136,109.704 C300.1136,109.704 313.7006,123.291 313.7006,139.991 C313.7006,156.691 300.1136,170.278 283.4136,170.278" id="Fill-3" fill="#ffffff"></path>
        <path d="M284.044,131.3642 C279.349,131.3642 275.529,135.1842 275.529,139.8802 C275.529,144.5752 279.349,148.3942 284.044,148.3942 C288.739,148.3942 292.559,144.5752 292.559,139.8802 C292.559,135.1842 288.739,131.3642 284.044,131.3642 M284.044,154.3942 C276.041,154.3942 269.529,147.8832 269.529,139.8802 C269.529,131.8762 276.041,125.3642 284.044,125.3642 C292.048,125.3642 298.559,131.8762 298.559,139.8802 C298.559,147.8832 292.048,154.3942 284.044,154.3942" id="Fill-5" fill="#ffffff"></path>
        <path d="M151.5753,176.7567 C95.8073,176.7567 62.5233,176.5327 52.3153,176.0857 C16.6023,174.5217 1.3273,140.2407 0.6953,138.7827 C0.2923,137.8557 0.3843,136.7877 0.9383,135.9437 C1.4933,135.0977 2.4363,134.5887 3.4473,134.5887 L38.6973,134.5887 C40.3533,134.5887 41.6973,135.9317 41.6973,137.5887 C41.6973,139.2457 40.3533,140.5887 38.6973,140.5887 L8.4153,140.5887 C13.5453,149.3777 27.7313,169.0037 52.5783,170.0917 C66.5213,170.7027 136.1913,170.8967 237.0253,170.6527 L237.0333,170.6527 C238.6863,170.6527 240.0293,171.9897 240.033305,173.6457 C240.0363,175.3017 238.6973,176.6487 237.0403,176.6527 C208.0803,176.7227 173.5753,176.7567 151.5753,176.7567" id="Fill-7" fill="#ffffff"></path>
        <path d="M38.6968,140.5888 C37.0398,140.5888 35.6968,139.2458 35.6968,137.5888 L35.6968,121.2958 C28.9688,124.2318 22.4008,123.1808 17.6968,121.2128 L17.6968,137.5888 C17.6968,139.2458 16.3538,140.5888 14.6968,140.5888 C13.0398,140.5888 11.6968,139.2458 11.6968,137.5888 L11.6968,116.0888 C11.6968,114.9428 12.3488,113.8988 13.3778,113.3948 C14.4068,112.8908 15.6328,113.0168 16.5368,113.7198 C16.9368,114.0248 26.6938,121.2888 36.9048,113.6828 C37.8148,113.0058 39.0288,112.8978 40.0428,113.4078 C41.0568,113.9168 41.6968,114.9538 41.6968,116.0888 L41.6968,137.5888 C41.6968,139.2458 40.3538,140.5888 38.6968,140.5888" id="Fill-9" fill="#ffffff"></path>
        <polygon id="Fill-11" fill="#ffffff" points="276.794 128.364 282.794 128.364 282.794 112.928 276.794 112.928"></polygon>
        <polygon id="Fill-13" fill="#ffffff" points="285.294 128.364 291.294 128.364 291.294 112.928 285.294 112.928"></polygon>
        <polygon id="Fill-14" fill="#ffffff" points="276.794 166.83 282.794 166.83 282.794 151.394 276.794 151.394"></polygon>
        <polygon id="Fill-15" fill="#ffffff" points="285.294 166.83 291.294 166.83 291.294 151.394 285.294 151.394"></polygon>
        <polygon id="Fill-16" fill="#ffffff" points="258.093 147.13 273.529 147.13 273.529 141.13 258.093 141.13"></polygon>
        <polygon id="Fill-17" fill="#ffffff" points="258.093 138.63 273.529 138.63 273.529 132.63 258.093 132.63"></polygon>
        <polygon id="Fill-18" fill="#ffffff" points="296.559 147.13 311.995 147.13 311.995 141.13 296.559 141.13"></polygon>
        <polygon id="Fill-19" fill="#ffffff" points="296.559 138.63 311.995 138.63 311.995 132.63 296.559 132.63"></polygon>
        <path d="M222.0718,142.0058 C215.5238,142.0058 210.1958,136.6788 210.1958,130.1308 L210.1958,25.0888 C210.1958,22.6528 212.1778,20.6718 214.6138,20.6718 C217.0488,20.6718 219.0308,22.6528 219.0308,25.0888 L219.0308,130.1308 C219.0308,131.8078 220.3948,133.1718 222.0718,133.1718 L237.3218,133.1718 C238.9988,133.1718 240.3628,131.8078 240.3628,130.1308 L240.3628,25.0888 C240.3628,22.6528 242.3448,20.6718 244.7798,20.6718 C247.2158,20.6718 249.1978,22.6528 249.1978,25.0888 L249.1978,130.1308 C249.1978,136.6788 243.8698,142.0058 237.3218,142.0058 L222.0718,142.0058 Z" id="Fill-20" fill="#ffffff"></path>
        <path d="M237.3218,140.5888 L222.0718,140.5888 C216.3048,140.5888 211.6138,135.8978 211.6138,130.1308 L211.6138,25.0888 C211.6138,23.4318 212.9568,22.0888 214.6138,22.0888 C216.2698,22.0888 217.6138,23.4318 217.6138,25.0888 L217.6138,130.1308 C217.6138,132.5888 219.6138,134.5888 222.0718,134.5888 L237.3218,134.5888 C239.7798,134.5888 241.7798,132.5888 241.7798,130.1308 L241.7798,25.0888 C241.7798,23.4318 243.1238,22.0888 244.7798,22.0888 C246.4368,22.0888 247.7798,23.4318 247.7798,25.0888 L247.7798,130.1308 C247.7798,135.8978 243.0888,140.5888 237.3218,140.5888" id="Fill-21" fill="#ffffff"></path>
        <path d="M175.6133,29.5058 C174.7403,29.5058 174.0303,30.2158 174.0303,31.0888 L174.0303,67.7458 C174.0853,67.7318 174.1403,67.7168 174.1963,67.7028 L174.1963,67.3388 L183.4463,67.3388 C184.3193,67.3388 185.0293,66.6288 185.0293,65.7558 L185.0293,31.0888 C185.0293,30.2158 184.3193,29.5058 183.4463,29.5058 L175.6133,29.5058 Z M177.0713,76.1728 C175.3953,76.1728 174.0303,77.5368 174.0303,79.2138 L174.0303,130.1308 C174.0303,131.8078 175.3953,133.1718 177.0713,133.1718 L192.3213,133.1718 C193.9983,133.1718 195.3633,131.8078 195.3633,130.1308 L195.3633,79.2138 C195.3633,77.5368 193.9983,76.1728 192.3213,76.1728 L177.0713,76.1728 Z M177.0713,142.0058 C170.5233,142.0058 165.1963,136.6788 165.1963,130.1308 L165.1963,31.0888 C165.1963,25.3448 169.8693,20.6718 175.6133,20.6718 L183.4463,20.6718 C189.1913,20.6718 193.8643,25.3448 193.8643,31.0888 L193.8643,65.7558 C193.8643,66.3128 193.8183,66.8688 193.7263,67.4208 C199.6143,68.1178 204.1973,73.1408 204.1973,79.2138 L204.1973,130.1308 C204.1973,136.6788 198.8703,142.0058 192.3213,142.0058 L177.0713,142.0058 Z" id="Fill-22" fill="#ffffff"></path>
        <path d="M196.7803,130.1308 C196.7803,132.5888 194.7803,134.5888 192.3223,134.5888 L177.0723,134.5888 C174.6133,134.5888 172.6133,132.5888 172.6133,130.1308 L172.6133,81.3378 L172.6133,79.2138 C172.6133,76.7558 174.6133,74.7558 177.0723,74.7558 L183.4473,74.7558 L192.3223,74.7558 C194.7803,74.7558 196.7803,76.7558 196.7803,79.2138 L196.7803,130.1308 Z M175.6133,28.0888 L183.4473,28.0888 C185.1013,28.0888 186.4473,29.4348 186.4473,31.0888 L186.4473,65.7558 C186.4473,67.4098 185.1013,68.7558 183.4473,68.7558 L177.0723,68.7558 L175.6133,68.7558 L175.6133,68.8688 C174.5533,69.0188 173.5473,69.3248 172.6133,69.7678 L172.6133,31.0888 C172.6133,29.4348 173.9593,28.0888 175.6133,28.0888 L175.6133,28.0888 Z M192.3223,68.7558 L191.9223,68.7558 C192.2563,67.8158 192.4473,66.8088 192.4473,65.7558 L192.4473,31.0888 C192.4473,26.1258 188.4093,22.0888 183.4473,22.0888 L175.6133,22.0888 C170.6513,22.0888 166.6133,26.1258 166.6133,31.0888 L166.6133,79.2138 L166.6133,81.3378 L166.6133,130.1308 C166.6133,135.8978 171.3053,140.5888 177.0723,140.5888 L192.3223,140.5888 C198.0883,140.5888 202.7803,135.8978 202.7803,130.1308 L202.7803,79.2138 C202.7803,73.4468 198.0883,68.7558 192.3223,68.7558 L192.3223,68.7558 Z" id="Fill-23" fill="#ffffff"></path>
        <path d="M284.044,185.2294 C264.035,185.2294 246.168,171.8224 240.594,152.6254 C239.915,150.2864 241.266,147.8304 243.605,147.1514 C244.007,147.0354 244.421,146.9754 244.837,146.9754 C246.79,146.9754 248.533,148.2864 249.078,150.1614 C253.563,165.6074 267.941,176.3954 284.044,176.3954 C304.117,176.3954 320.448,160.0644 320.448,139.9914 C320.448,139.1804 320.429,138.3784 320.392,137.6054 C320.296,137.2784 320.242,136.9684 320.225,136.6664 C319.389,121.8784 309.733,109.9224 295.626,106.2104 C290.975,104.9854 284.061,103.0384 277.533,100.7184 C267.754,97.2404 256.53,91.2584 256.53,75.7554 L256.53,32.5464 C256.53,25.9994 261.857,20.6714 268.406,20.6714 L283.655,20.6714 C290.204,20.6714 295.531,25.9994 295.531,32.5464 L295.531,48.4214 C295.531,50.8574 293.549,52.8384 291.114,52.8384 C288.678,52.8384 286.696,50.8574 286.696,48.4214 L286.696,32.5464 C286.696,30.8704 285.332,29.5054 283.655,29.5054 L268.406,29.5054 C266.729,29.5054 265.365,30.8704 265.365,32.5464 L265.365,75.7554 C265.365,85.1284 271.153,89.0714 280.493,92.3944 C286.749,94.6174 293.398,96.4884 297.875,97.6664 C313.14,101.6834 324.377,113.2204 327.946,128.5354 C327.946,128.5354 328.14,129.3824 328.179,129.5734 C328.919,132.7624 329.283,136.1824 329.283,139.9914 C329.283,164.9354 308.989,185.2294 284.044,185.2294" id="Fill-24" fill="#ffffff"></path>
        <path d="M326.7911,129.8583 C326.7421,129.6213 326.6871,129.3853 326.6341,129.1503 C326.6171,129.0803 326.6051,129.0043 326.5871,128.9353 C326.5851,128.9283 326.5821,128.9233 326.5801,128.9173 C323.1991,114.3153 312.3791,102.9493 297.5141,99.0373 C293.0061,97.8503 286.3121,95.9653 280.0181,93.7293 C270.3721,90.2973 263.9471,85.9283 263.9471,75.7553 L263.9471,32.5463 C263.9471,30.0883 265.9471,28.0883 268.4061,28.0883 L283.6551,28.0883 C286.1141,28.0883 288.1141,30.0883 288.1141,32.5463 L288.1141,48.4213 C288.1141,50.0793 289.4571,51.4213 291.1141,51.4213 C292.7701,51.4213 294.1141,50.0793 294.1141,48.4213 L294.1141,32.5463 C294.1141,26.7803 289.4221,22.0883 283.6551,22.0883 L268.4061,22.0883 C262.6391,22.0883 257.9471,26.7803 257.9471,32.5463 L257.9471,75.7553 C257.9471,90.3733 268.6681,96.0603 278.0081,99.3823 C284.4991,101.6893 291.3671,103.6233 295.9861,104.8393 C310.6991,108.7123 320.7691,121.1743 321.6401,136.5873 C321.6551,136.8573 321.7171,137.1113 321.7981,137.3563 C321.8431,138.2063 321.8661,139.0833 321.8661,139.9913 C321.8661,160.8453 304.8991,177.8123 284.0441,177.8123 C267.3141,177.8123 252.3761,166.6043 247.7171,150.5563 C247.2551,148.9653 245.5911,148.0503 243.9991,148.5123 C242.4081,148.9743 241.4931,150.6383 241.9551,152.2303 C247.3541,170.8253 264.6621,183.8123 284.0441,183.8123 C308.2081,183.8123 327.8661,164.1543 327.8661,139.9913 C327.8661,136.2363 327.5001,132.9203 326.7911,129.8583" id="Fill-25" fill="#ffffff"></path>
        <path d="M59.2803,142.0058 C52.7323,142.0058 47.4043,136.6788 47.4043,130.1308 L47.4043,126.4208 C47.4043,123.9848 49.3863,122.0038 51.8223,122.0038 C54.2573,122.0038 56.2393,123.9848 56.2393,126.4208 L56.2393,130.1308 C56.2393,131.8078 57.6033,133.1718 59.2803,133.1718 L69.8633,133.1718 C71.5403,133.1718 72.9043,131.8078 72.9043,130.1308 L72.9043,116.4218 C72.9043,114.7448 71.5403,113.3808 69.8633,113.3808 L59.2803,113.3808 C52.7323,113.3808 47.4043,108.0538 47.4043,101.5058 L47.4043,87.7968 C47.4043,81.2488 52.7323,75.9218 59.2803,75.9218 L69.8633,75.9218 C76.4113,75.9218 81.7393,81.2488 81.7393,87.7968 L81.7393,91.2558 C81.7393,93.6918 79.7573,95.6728 77.3223,95.6728 C74.8863,95.6728 72.9043,93.6918 72.9043,91.2558 L72.9043,87.7968 C72.9043,86.1198 71.5403,84.7558 69.8633,84.7558 L59.2803,84.7558 C57.6033,84.7558 56.2393,86.1198 56.2393,87.7968 L56.2393,101.5058 C56.2393,103.1828 57.6033,104.5468 59.2803,104.5468 L69.8633,104.5468 C76.4113,104.5468 81.7393,109.8738 81.7393,116.4218 L81.7393,130.1308 C81.7393,136.6788 76.4113,142.0058 69.8633,142.0058 L59.2803,142.0058 Z" id="Fill-26" fill="#ffffff"></path>
        <path d="M77.3218,94.2558 C78.9788,94.2558 80.3218,92.9128 80.3218,91.2558 L80.3218,87.7968 C80.3218,82.0298 75.6298,77.3388 69.8638,77.3388 L59.2798,77.3388 C53.5138,77.3388 48.8218,82.0298 48.8218,87.7968 L48.8218,101.5058 C48.8218,107.2728 53.5138,111.9638 59.2798,111.9638 L69.8638,111.9638 C72.3218,111.9638 74.3218,113.9638 74.3218,116.4218 L74.3218,130.1308 C74.3218,132.5888 72.3218,134.5888 69.8638,134.5888 L59.2798,134.5888 C56.8218,134.5888 54.8218,132.5888 54.8218,130.1308 L54.8218,126.4208 C54.8218,124.7638 53.4788,123.4208 51.8218,123.4208 C50.1648,123.4208 48.8218,124.7638 48.8218,126.4208 L48.8218,130.1308 C48.8218,135.8978 53.5138,140.5888 59.2798,140.5888 L69.8638,140.5888 C75.6298,140.5888 80.3218,135.8978 80.3218,130.1308 L80.3218,116.4218 C80.3218,110.6548 75.6298,105.9638 69.8638,105.9638 L59.2798,105.9638 C56.8218,105.9638 54.8218,103.9638 54.8218,101.5058 L54.8218,87.7968 C54.8218,85.3388 56.8218,83.3388 59.2798,83.3388 L69.8638,83.3388 C72.3218,83.3388 74.3218,85.3388 74.3218,87.7968 L74.3218,91.2558 C74.3218,92.9128 75.6648,94.2558 77.3218,94.2558" id="Fill-27" fill="#ffffff"></path>
        <path d="M97.9053,142.0058 C91.3573,142.0058 86.0293,136.6788 86.0293,130.1308 L86.0293,87.7968 C86.0293,81.2488 91.3573,75.9218 97.9053,75.9218 L112.8223,75.9218 C115.2573,75.9218 117.2393,77.9028 117.2393,80.3388 C117.2393,82.7748 115.2573,84.7558 112.8223,84.7558 L97.9053,84.7558 C96.2283,84.7558 94.8643,86.1198 94.8643,87.7968 L94.8643,104.5468 L112.8223,104.5468 C115.2573,104.5468 117.2393,106.5278 117.2393,108.9638 C117.2393,111.3998 115.2573,113.3808 112.8223,113.3808 L94.8643,113.3808 L94.8643,130.1308 C94.8643,131.8078 96.2283,133.1718 97.9053,133.1718 L112.8223,133.1718 C115.2573,133.1718 117.2393,135.1528 117.2393,137.5888 C117.2393,140.0248 115.2573,142.0058 112.8223,142.0058 L97.9053,142.0058 Z" id="Fill-28" fill="#ffffff"></path>
        <path d="M112.8218,111.9638 C114.4788,111.9638 115.8218,110.6208 115.8218,108.9638 C115.8218,107.3068 114.4788,105.9638 112.8218,105.9638 L93.4468,105.9638 L93.4468,87.7968 C93.4468,85.3388 95.4468,83.3388 97.9048,83.3388 L112.8218,83.3388 C114.4788,83.3388 115.8218,81.9958 115.8218,80.3388 C115.8218,78.6818 114.4788,77.3388 112.8218,77.3388 L97.9048,77.3388 C92.1388,77.3388 87.4468,82.0298 87.4468,87.7968 L87.4468,130.1308 C87.4468,135.8978 92.1388,140.5888 97.9048,140.5888 L112.8218,140.5888 C114.4788,140.5888 115.8218,139.2458 115.8218,137.5888 C115.8218,135.9318 114.4788,134.5888 112.8218,134.5888 L97.9048,134.5888 C95.4468,134.5888 93.4468,132.5888 93.4468,130.1308 L93.4468,111.9638 L112.8218,111.9638 Z" id="Fill-29" fill="#ffffff"></path>
        <path d="M145.4297,104.5468 L143.0707,87.4428 C142.6577,84.7558 142.2257,84.7558 140.9467,84.7558 L140.4477,84.7558 C139.1477,84.7558 138.8777,84.7558 138.2927,87.6368 L135.7957,104.5468 L145.4297,104.5468 Z M154.4437,142.0058 C152.2507,142.0058 150.3707,140.3658 150.0707,138.1928 L146.6487,113.3808 L134.4897,113.3808 L130.8167,138.2348 C130.4987,140.3848 128.6217,142.0058 126.4507,142.0058 C126.2377,142.0058 126.0217,141.9898 125.8047,141.9588 C124.6337,141.7858 123.6037,141.1698 122.9007,140.2218 C122.1967,139.2748 121.9047,138.1098 122.0767,136.9428 L129.5777,86.1928 C129.5877,86.1218 129.6007,86.0498 129.6147,85.9788 C130.4777,81.6578 132.5397,75.9218 140.4477,75.9218 L140.9467,75.9218 C145.1847,75.9218 150.5107,77.6988 151.8127,86.1668 L154.7457,107.4268 C154.9287,107.9188 155.0207,108.4348 155.0207,108.9638 C155.0207,109.0708 155.0127,109.1748 155.0007,109.2778 L158.8227,136.9848 C159.1557,139.3978 157.4637,141.6318 155.0507,141.9648 C154.8467,141.9918 154.6437,142.0058 154.4437,142.0058 L154.4437,142.0058 Z" id="Fill-30" fill="#ffffff"></path>
        <path d="M134.1534,105.9638 L136.9034,87.3548 C137.7184,83.3388 138.7484,83.3388 140.4474,83.3388 L140.9464,83.3388 C142.5164,83.3388 143.8734,83.3388 144.4744,87.2488 L147.0564,105.9638 L134.1534,105.9638 Z M157.4184,137.1788 L153.5704,109.2858 C153.5824,109.1788 153.6034,109.0738 153.6034,108.9638 C153.6034,108.5468 153.5184,108.1508 153.3644,107.7898 L150.4114,86.3828 C149.4884,80.3818 146.3044,77.3388 140.9464,77.3388 L140.4474,77.3388 C133.6574,77.3388 131.8354,82.1018 131.0054,86.2508 C130.9954,86.3008 130.9864,86.3508 130.9794,86.4008 L123.4794,137.1508 C123.2364,138.7888 124.3694,140.3148 126.0084,140.5568 C126.1564,140.5778 126.3044,140.588998 126.4504,140.588998 C127.9134,140.588998 129.1944,139.5178 129.4144,138.0268 L133.2664,111.9638 L147.8834,111.9638 L151.4754,137.9988 C151.7014,139.6398 153.2144,140.7858 154.8574,140.5608 C156.4984,140.3338 157.6454,138.8198 157.4184,137.1788 L157.4184,137.1788 Z" id="Fill-31" fill="#ffffff"></path>
        <path d="M26.6578,132.702 C18.8848,132.702 13.5098,129.621 13.1768,129.425 C11.7478,128.586 11.2708,126.747 12.1108,125.318 C12.9478,123.893 14.7798,123.415 16.2068,124.246 C16.6258,124.488 26.0038,129.723 37.3758,124.145 C38.8638,123.412 40.6608,124.029 41.3898,125.517 C42.1198,127.006 41.5058,128.803 40.0178,129.532 C35.1778,131.906 30.6078,132.702 26.6578,132.702" id="Fill-32" fill="#ffffff"></path>
        <path d="M328.8209,176.3202 C327.1699,176.3202 325.8279,174.9852 325.82088,173.3332 C325.8149,171.6752 327.1519,170.3272 328.8089,170.3202 C349.7909,170.2332 386.9789,170.1572 395.1199,170.1182 L373.9099,140.5892 L339.6979,140.5892 C338.0409,140.5892 336.6979,139.2462 336.6979,137.5892 L336.6979,116.0892 C336.6979,114.4312 338.0409,113.0892 339.6979,113.0892 C341.3549,113.0892 342.6979,114.4312 342.6979,116.0892 L342.6979,134.5892 L375.4479,134.5892 C376.4139,134.5892 377.3209,135.0532 377.8849,135.8392 L403.3849,171.3392 C404.0399,172.2502 404.1309,173.4512 403.6209,174.4512 C403.1119,175.4512 402.0859,176.0832 400.9639,176.0892 C400.9639,176.0892 359.5289,176.1932 328.8339,176.3202 L328.8209,176.3202 Z" id="Fill-33" fill="#ffffff"></path>
        <path d="M363.7408,140.5868 C362.0838,140.5868 360.7408,139.2438 360.7408,137.5868 L360.7408,121.2938 C354.0118,124.2298 347.4448,123.1788 342.7408,121.2108 L342.7408,137.5868 C342.7408,139.2438 341.3978,140.5868 339.7408,140.5868 C338.0838,140.5868 336.7408,139.2438 336.7408,137.5868 L336.7408,116.0868 C336.7408,114.9408 337.3928,113.8968 338.4218,113.3928 C339.4508,112.8888 340.6778,113.0148 341.5808,113.7178 C341.9808,114.0228 351.7378,121.2868 361.9488,113.6808 C362.8578,113.0038 364.0718,112.8958 365.0868,113.4058 C366.1008,113.9148 366.7408,114.9518 366.7408,116.0868 L366.7408,137.5868 C366.7408,139.2438 365.3978,140.5868 363.7408,140.5868" id="Fill-34" fill="#ffffff"></path>
        <path d="M351.7017,132.702 C343.9287,132.702 338.5537,129.621 338.2207,129.425 C336.7917,128.586 336.3147,126.747 337.1547,125.318 C337.9927,123.893 339.8227,123.415 341.2507,124.246 C341.6687,124.488 351.0477,129.723 362.4197,124.145 C363.9077,123.412 365.7047,124.029 366.4337,125.517 C367.1637,127.006 366.5497,128.803 365.0617,129.532 C360.2217,131.906 355.6517,132.702 351.7017,132.702" id="Fill-35" fill="#ffffff"></path>
        <path d="M72.543,28.0888 C70.974,28.0888 69.697,29.3648 69.697,30.9348 L69.697,61.1848 C69.697,62.7538 70.974,64.0308 72.543,64.0308 L148.601,64.0308 C150.17,64.0308 151.447,62.7538 151.447,61.1848 L151.447,30.9348 C151.447,29.3648 150.17,28.0888 148.601,28.0888 L72.543,28.0888 Z M148.601,70.0308 L72.543,70.0308 C67.665,70.0308 63.697,66.0628 63.697,61.1848 L63.697,30.9348 C63.697,26.0568 67.665,22.0888 72.543,22.0888 L148.601,22.0888 C153.479,22.0888 157.447,26.0568 157.447,30.9348 L157.447,61.1848 C157.447,66.0628 153.479,70.0308 148.601,70.0308 L148.601,70.0308 Z" id="Fill-36" fill="#ffffff"></path>
        <path d="M110.5718,47.0311 C108.9148,47.0311 107.5718,45.6881 107.5718,44.0311 L107.5718,25.0891 C107.5718,23.4311 108.9148,22.0891 110.5718,22.0891 C112.2288,22.0891 113.5718,23.4311 113.5718,25.0891 L113.5718,44.0311 C113.5718,45.6881 112.2288,47.0311 110.5718,47.0311" id="Fill-37" fill="#ffffff"></path>
        <path d="M154.4468,48.8358 L66.6968,48.8358 C65.0398,48.8358 63.6968,47.4928 63.6968,45.8358 C63.6968,44.1788 65.0398,42.8358 66.6968,42.8358 L154.4468,42.8358 C156.1038,42.8358 157.4468,44.1788 157.4468,45.8358 C157.4468,47.4928 156.1038,48.8358 154.4468,48.8358" id="Fill-38" fill="#ffffff"></path>
        <path d="M404.7447,182.8124 C394.6727,182.8124 389.0347,186.1984 383.5807,189.4714 C378.5347,192.5014 373.7687,195.3644 365.0947,195.3644 C356.1447,195.3644 351.0497,192.3694 345.6557,189.1984 C340.3157,186.0584 334.7937,182.8124 325.9327,182.8124 C312.5767,182.8124 306.3427,186.6984 300.8437,190.1254 C296.3347,192.9364 292.4407,195.3644 284.6917,195.3644 C276.3407,195.3644 271.3777,192.5214 266.1237,189.5124 C260.3717,186.2184 254.4247,182.8124 244.3147,182.8124 C234.2417,182.8124 228.6037,186.1984 223.1507,189.4724 C218.1047,192.5014 213.3387,195.3644 204.6647,195.3644 C195.7147,195.3644 190.6197,192.3694 185.2257,189.1984 C179.8857,186.0584 174.3637,182.8124 165.5027,182.8124 C152.1457,182.8124 145.9127,186.6984 140.4127,190.1254 C135.9047,192.9364 132.0107,195.3644 124.2617,195.3644 C115.9107,195.3644 110.9477,192.5214 105.6927,189.5124 C99.9417,186.2184 93.9947,182.8124 83.8847,182.8124 C73.8117,182.8124 68.1737,186.1984 62.7207,189.4714 C57.6747,192.5014 52.9077,195.3644 44.2337,195.3644 C35.2837,195.3644 30.1887,192.3694 24.7957,189.1984 C19.4557,186.0584 13.9337,182.8124 5.0727,182.8124 C3.4157,182.8124 2.0727,184.1554 2.0727,185.8124 C2.0727,187.4694 3.4157,188.8124 5.0727,188.8124 C12.3007,188.8124 16.6817,191.3874 21.7547,194.3704 C27.3307,197.6484 33.6507,201.3644 44.2337,201.3644 C54.5707,201.3644 60.5417,197.7794 65.8097,194.6164 C70.7797,191.6314 75.4747,188.8124 83.8847,188.8124 C92.3977,188.8124 97.4077,191.6814 102.7107,194.7184 C108.4147,197.9864 114.3137,201.3644 124.2617,201.3644 C133.7267,201.3644 138.7397,198.2394 143.5867,195.2174 C148.8717,191.9234 153.8627,188.8124 165.5027,188.8124 C172.7307,188.8124 177.1117,191.3874 182.1847,194.3704 C187.7607,197.6484 194.0807,201.3644 204.6647,201.3644 C215.0007,201.3644 220.9717,197.7794 226.2397,194.6164 C231.2097,191.6314 235.9047,188.8124 244.3147,188.8124 C252.8277,188.8124 257.8377,191.6814 263.1417,194.7184 C268.8457,197.9864 274.7447,201.3644 284.6917,201.3644 C294.1577,201.3644 299.1697,198.2394 304.0167,195.2174 C309.3017,191.9234 314.2927,188.8124 325.9327,188.8124 C333.1607,188.8124 337.5417,191.3874 342.6147,194.3704 C348.1907,197.6484 354.5117,201.3644 365.0947,201.3644 C375.4317,201.3644 381.4017,197.7794 386.6697,194.6164 C391.6407,191.6314 396.3357,188.8124 404.7447,188.8124 C406.4017,188.8124 407.7447,187.4694 407.7447,185.8124 C407.7447,184.1554 406.4017,182.8124 404.7447,182.8124" id="Fill-39" fill="#ffffff"></path>
        <path d="M71.088,151.1513 L71.088,152.6193 C71.088,152.9403 70.981,153.1373 70.569,153.1373 L65.164,153.1373 L65.164,155.2313 L69.817,155.2313 C70.229,155.2313 70.336,155.4283 70.336,155.7513 L70.336,157.1653 C70.336,157.4873 70.229,157.6833 69.817,157.6833 L65.164,157.6833 L65.164,161.8723 C65.164,162.3383 65.056,162.4093 64.645,162.4093 L62.873,162.4093 C62.461,162.4093 62.354,162.2123 62.354,161.8893 L62.354,151.1513 C62.354,150.8293 62.461,150.6313 62.873,150.6313 L70.569,150.6313 C70.981,150.6313 71.088,150.8293 71.088,151.1513" id="Fill-40" fill="#ffffff"></path>
        <path d="M88.0787,160.4765 L88.0787,161.8895 C88.0787,162.2115 87.9717,162.4095 87.5597,162.4095 L82.4947,162.4095 C82.0827,162.4095 81.9757,162.2115 81.9757,161.8895 L81.9757,160.4765 C81.9757,160.1545 82.0827,159.9565 82.4947,159.9565 L83.6217,159.9565 L83.6217,153.1205 L82.5307,153.1205 C82.1187,153.1205 82.0117,152.9225 82.0117,152.6005 L82.0117,151.1515 C82.0117,150.8295 82.1187,150.6315 82.5307,150.6315 L87.5057,150.6315 C87.9177,150.6315 88.0247,150.8295 88.0247,151.1515 L88.0247,152.6005 C88.0247,152.9225 87.9177,153.1205 87.5057,153.1205 L86.4327,153.1205 L86.4327,159.9565 L87.5597,159.9565 C87.9717,159.9565 88.0787,160.1545 88.0787,160.4765" id="Fill-41" fill="#ffffff"></path>
        <path d="M108.4341,158.9188 C108.4341,161.4608 106.4291,162.6778 103.6731,162.6778 C101.4351,162.6778 98.8581,161.3888 98.8581,158.8828 C98.8581,158.4718 98.9661,158.3818 99.3771,158.3818 L101.1131,158.3818 C101.5251,158.3818 101.7221,158.4358 101.7581,158.8828 C101.7761,159.1158 101.8651,159.3488 102.0981,159.6168 C102.4561,160.0468 103.1901,160.2078 103.8521,160.2078 C104.8181,160.2078 105.6061,159.9928 105.6061,158.9898 C105.6061,157.9878 104.0131,157.9708 102.4921,157.4868 C100.6841,156.9138 99.0191,156.1978 99.0191,153.9248 C99.0191,151.5988 101.1311,150.4528 103.3691,150.3628 C105.6421,150.3628 108.1301,151.4008 108.1301,153.7648 C108.1301,154.1928 108.0221,154.2658 107.6111,154.2658 L105.8561,154.2658 C105.5171,154.2658 105.4631,154.0148 105.3731,153.7818 C105.3021,153.6038 105.2121,153.4598 104.9971,153.2448 C104.6571,152.9228 104.0131,152.7618 103.4761,152.7618 C102.8851,152.7618 101.9011,152.9938 101.9011,153.7998 C101.9011,154.8918 104.5321,155.2848 105.2481,155.5718 C106.5371,155.9658 108.4341,156.4838 108.4341,158.9188" id="Fill-42" fill="#ffffff"></path>
        <path d="M129.4522,151.1513 L129.4522,161.8893 C129.4522,162.3013 129.2552,162.4093 128.9332,162.4093 L127.1612,162.4093 C126.8392,162.4093 126.6422,162.3013 126.6422,161.8893 L126.6422,157.8443 L122.6512,157.8443 L122.6512,161.8893 C122.6512,162.3013 122.4722,162.4093 122.1322,162.4093 L120.3602,162.4093 C120.0372,162.4093 119.8412,162.3013 119.8412,161.8893 L119.8412,151.1513 C119.8412,150.7393 120.0372,150.6313 120.3602,150.6313 L122.1322,150.6313 C122.4722,150.6313 122.6512,150.7393 122.6512,151.1513 L122.6512,155.1963 L126.6422,155.1963 L126.6422,151.1513 C126.6422,150.7393 126.8392,150.6313 127.1612,150.6313 L128.9332,150.6313 C129.2552,150.6313 129.4522,150.7393 129.4522,151.1513" id="Fill-43" fill="#ffffff"></path>
        <path d="M149.5938,160.4227 L149.5938,161.8897 C149.5938,162.2117 149.4868,162.4087 149.0748,162.4087 L141.2708,162.4087 C140.8058,162.4087 140.7348,162.3187 140.7348,161.8897 L140.7348,160.4937 C140.7348,160.0817 140.9668,159.8137 140.9668,159.8137 L145.7998,153.1377 L141.4148,153.1377 C141.0028,153.1377 140.8958,152.9407 140.8958,152.6187 L140.8958,151.1517 C140.8958,150.8287 141.0028,150.6317 141.4148,150.6317 L148.6098,150.6317 C149.0208,150.6317 149.1288,150.8287 149.1288,151.1517 L149.1288,152.5467 C149.1288,152.7787 149.0748,153.0127 148.8958,153.2447 L144.0988,159.9027 L149.0748,159.9027 C149.4868,159.9027 149.5938,160.1007 149.5938,160.4227" id="Fill-44" fill="#ffffff"></path>
        <path d="M167.3184,154.6591 C167.3184,153.5131 166.4954,152.8511 165.3134,152.8511 C164.1504,152.8511 163.3264,153.5131 163.3264,154.6591 L163.3264,158.3821 C163.3264,159.5271 164.1504,160.1891 165.3134,160.1891 C166.4954,160.1891 167.3184,159.5271 167.3184,158.3821 L167.3184,154.6591 Z M170.1284,158.6331 C170.1284,161.4611 167.4434,162.6781 165.3134,162.6781 C163.1834,162.6781 160.5344,161.4611 160.5344,158.6331 L160.5344,154.4081 C160.5344,151.5801 163.1834,150.3631 165.3134,150.3631 C167.4434,150.3631 170.1284,151.5801 170.1284,154.4081 L170.1284,158.6331 Z" id="Fill-45" fill="#ffffff"></path>
        <path d="M191.2901,151.1513 L191.2901,161.8893 C191.2901,162.2123 191.1831,162.4093 190.7711,162.4093 L189.1421,162.4093 C188.6951,162.4093 188.5691,162.1583 188.3371,161.8003 L184.5421,155.6613 L184.5421,161.8893 C184.5421,162.3013 184.3451,162.4093 184.0231,162.4093 L182.2511,162.4093 C181.9291,162.4093 181.7321,162.3013 181.7321,161.8893 L181.7321,151.1513 C181.7321,150.8293 181.8401,150.6313 182.2511,150.6313 L183.9341,150.6313 C184.3811,150.6313 184.5061,150.8823 184.7391,151.2403 L188.5341,157.3613 L188.5341,151.1513 C188.5341,150.7393 188.7301,150.6313 189.0531,150.6313 L190.7711,150.6313 C191.0931,150.6313 191.2901,150.7393 191.2901,151.1513" id="Fill-46" fill="#ffffff"></path>
        <path d="M212.3087,160.4227 L212.3087,161.8897 C212.3087,162.2117 212.2017,162.4087 211.7897,162.4087 L203.7707,162.4087 C203.3597,162.4087 203.2517,162.2117 203.2517,161.8897 L203.2517,151.1517 C203.2517,150.8287 203.3597,150.6317 203.7707,150.6317 L211.4847,150.6317 C211.8967,150.6317 212.0037,150.8287 212.0037,151.1517 L212.0037,152.6367 C212.0037,152.9587 211.8967,153.1547 211.4847,153.1547 L206.0797,153.1547 L206.0797,155.1067 L210.8767,155.1067 C211.2877,155.1067 211.3957,155.3037 211.3957,155.6257 L211.3957,157.0217 C211.3957,157.3437 211.2877,157.5407 210.8767,157.5407 L206.0797,157.5407 L206.0797,159.9027 L211.7897,159.9027 C212.2017,159.9027 212.3087,160.1007 212.3087,160.4227" id="Fill-47" fill="#ffffff"></path>
    </g>
</svg>